<?xml version="1.0" encoding="UTF-8"?>
<svg xmlns="http://www.w3.org/2000/svg" version="1.1" viewBox="0 0 256 256">
  <defs>
    <style>
      .cls-1 {
        fill: #0e1118;
      }

      .cls-2 {
        fill: #eff1f4;
      }
    </style>
  </defs>
  <!-- Generator: Adobe Illustrator 28.6.0, SVG Export Plug-In . SVG Version: 1.2.0 Build 709)  -->
  <g>
    <g id="Layer_1">
      <g id="Layer_2">
        <rect class="cls-1" width="256" height="256" rx="30.1" ry="30.1"/>
      </g>
      <g id="Layer_1-2" data-name="Layer_1">
        <g>
          <g id="letter_x5F_j">
            <path class="cls-2" d="M40.3,232.7c-8.3-.9-14.7-3.4-19.1-7.6-4.5-4.1-6.2-9.8-5.1-16.8.5-3.8,2-7.2,4.4-10.1,2.4-3,5.5-4.2,9.4-3.8,3.9.4,6.4,2,7.7,4.8,1.3,2.8,2,5.8,2.1,9.1s.4,6.3.8,8.9,1.7,4,3.9,4.2c2.1.2,4.2-.8,6.3-3s4.3-5.3,6.4-9.1,4.2-8.2,6.1-13c1.9-4.8,3.7-9.6,5.4-14.6s3.2-9.6,4.4-14.1l26.8-85.4c.9-3.2,1.5-5.9,1.9-8.2.2-1.7,0-3.4-.6-5.1-.7-1.6-2.5-2.6-5.4-2.9-1.9-.2-4.5-.3-7.6-.3l1.3-9.3,35.8,1,9.1,1-31.2,101.7c-1.9,6.1-4.2,12.6-6.7,19.6-2.5,7-5.5,13.8-9.1,20.4-3.5,6.6-7.5,12.5-11.9,17.7-4.4,5.2-9.6,9.2-15.3,12-5.8,2.8-12.3,3.8-19.5,3h0Z"/>
            <path class="cls-2" d="M124.6,38c-4.9,0-8.8-1.4-11.7-4.1-2.8-2.7-4.3-6.4-4.3-10.9s1.4-8.5,4.3-11.3c2.8-2.8,6.7-4.2,11.7-4.2s9,1.4,11.8,4.2,4.1,6.5,4.1,11-1.4,8.4-4.1,11.1c-2.8,2.7-6.7,4.1-11.8,4.1Z"/>
          </g>
          <path class="cls-2" d="M55.5,99.6l-8.6-5.1c7.2-14.5,17.1-25.5,29.7-33.1,12.6-7.6,26.8-11.4,42.7-11.4s20.7.2,30.5.6c9.7.4,19.8.6,30.1.6s18,0,26.8-.3c8.8-.2,17.5-.8,26.2-1.6l3.2,3.5c-.6,3.2-2.2,7.3-4.6,12.3-2.4,5-5.8,9.4-10.2,13.3s-10.2,5.8-17.6,5.8-7.8,0-12.1-.3c-4.2-.2-8.1-.4-11.7-.6s-6.7-.3-9.2-.3c-5.3,0-11.3,0-18.1-.3-6.8-.2-13.2-.4-19.4-.5-6.1-.1-11.1-.2-14.9-.2-10.4,0-18.9.1-25.5.3-6.7.2-12.1.9-16.3,2.1s-7.9,2.9-11.1,5.3-6.5,5.7-9.8,9.9h0Z"/>
          <path class="cls-2" d="M168.5,193.2c-7.6.7-13.4-.9-17.5-4.8-4.1-3.9-6.4-9.5-7.1-16.8-.7-8.3.1-17.2,2.5-26.9,2.4-9.7,5.7-20.2,9.7-31.7s8.2-23.7,12.3-36.6l15.1,1.3c-1.2,3.7-2.6,8.7-4.2,15.1s-3.3,13.2-4.9,20.4c-1.6,7.2-2.8,14.1-3.7,20.8-.9,6.6-1.1,12.1-.8,16.5.4,3.9,1.5,7.4,3.5,10.4,2,3,5.4,4.3,10.2,3.9,6.5-.6,11.3-2.1,14.4-4.4,3.1-2.4,6.1-4.9,9-7.5l6.8,4.8c-2.9,5.6-6.6,11.1-11,16.3-4.4,5.3-9.5,9.6-15.2,13.1-5.7,3.5-12.2,5.6-19.4,6.2h0Z"/>
        </g>
      </g>
    </g>
  </g>
</svg>