{
	"buffers":[{
		"uri":"data:application/octet-stream;base64,",
		"byteLength":844
	}],
	"asset":{
		"version":"2.0",
		"generator":"Maxon Cinema 4D 2024.4.1 (#200000219)",
		"copyright":""
	},
	"scenes":[{
		"nodes":[0]
	}],
	"nodes":[{
		"name":"ShootingStar",
		"mesh":0
	}],
	"meshes":[{
		"name":"ShootingStar",
		"primitives":[{
			"attributes":{
				"POSITION":1,
				"TEXCOORD_0":2
			},
			"indices":0
		}]
	}],
	"accessors":[{
		"bufferView":0,
		"type":"SCALAR",
		"componentType":5123,
		"min":[0],
		"count":132,
		"max":[28],
		"byteOffset":0
	},
	{
		"bufferView":1,
		"type":"VEC3",
		"componentType":5126,
		"min":[-0.8506507873535156,
		-0.8506507873535156,
		-0.8506507873535156],
		"count":29,
		"max":[0.8506507873535156,
		0.8506507873535156,
		23.330739974975587],
		"byteOffset":0
	},
	{
		"bufferView":1,
		"type":"VEC2",
		"componentType":5126,
		"min":[0.0,
		0.5],
		"count":29,
		"max":[1.0,
		0.5],
		"byteOffset":12
	}],
	"bufferViews":[{
		"buffer":0,
		"byteOffset":0,
		"byteLength":264,
		"target":34963
	},
	{
		"buffer":0,
		"byteOffset":264,
		"byteLength":580,
		"target":34962,
		"byteStride":20
	}]
}